<svg width="40" height="40" viewBox="0 0 40 40" fill="none" xmlns="http://www.w3.org/2000/svg">
    <g clip-path="url(#clip0)">
        <path d="M38.9345 6.49236L33.48 1.03324C32.1057 -0.342232 29.7149 -0.344874 28.3353 1.03589L3.90008 25.7122C3.79176 25.8215 3.71361 25.9557 3.671 26.1031L0.0347092 38.8412C-0.0558868 39.1584 0.0329195 39.5005 0.266441 39.7342C0.439536 39.9075 0.671268 40.0008 0.909221 40.0008C0.992658 40.0008 1.07703 39.9892 1.15868 39.9661L13.8859 36.3267C14.0332 36.2841 14.1673 36.2058 14.2764 36.0974L38.9345 11.6388C39.6217 10.9511 39.9999 10.0376 39.9999 9.06561C39.9999 8.0936 39.6217 7.18006 38.9345 6.49236ZM24.3738 7.6488L27.7201 10.9951L10.249 28.4664L8.99511 25.9578C8.8406 25.6497 8.52637 25.4553 8.18188 25.4553H6.72603L24.3738 7.6488ZM2.23288 37.7679L3.41702 33.6228L6.37797 36.5837L2.23288 37.7679ZM12.7273 34.7699L8.37773 36.0124L3.98829 31.623L5.23082 27.2735H7.61981L9.1867 30.4073C9.27457 30.5832 9.4175 30.7261 9.59332 30.814L12.7272 32.3808V34.7699H12.7273ZM14.5455 33.2748V31.8189C14.5455 31.4745 14.3511 31.1602 14.043 31.0057L11.5344 29.7519L29.0056 12.2807L32.3519 15.6271L14.5455 33.2748ZM37.6517 10.3746L33.6432 14.3473L25.6535 6.35753L29.6235 2.35179C30.3107 1.6646 31.5073 1.6646 32.1945 2.35179L37.649 7.8063C37.9926 8.14985 38.1817 8.60616 38.1817 9.09178C38.1817 9.5774 37.9926 10.0337 37.6517 10.3746Z" fill="black"/>
    </g>
    <defs>
        <clipPath id="clip0">
            <rect width="40" height="40" fill="white"/>
        </clipPath>
    </defs>
</svg>
